<?xml version="1.0" encoding="UTF-8" standalone="no"?>
<!DOCTYPE svg PUBLIC "-//W3C//DTD SVG 1.1//EN"
 "http://www.w3.org/Graphics/SVG/1.1/DTD/svg11.dtd">
<!-- Generated by graphviz version 2.50.0 (0)
 -->
<!-- Pages: 1 -->
<svg width="838pt" height="305pt"
 viewBox="0.00 0.00 838.34 305.00" xmlns="http://www.w3.org/2000/svg" xmlns:xlink="http://www.w3.org/1999/xlink">
<g id="graph0" class="graph" transform="scale(1 1) rotate(0) translate(4 301)">
<polygon fill="white" stroke="transparent" points="-4,4 -4,-301 834.34,-301 834.34,4 -4,4"/>
<!-- Admin -->
<g id="node1" class="node">
<title>Admin</title>
<ellipse fill="none" stroke="black" cx="398.34" cy="-279" rx="40.09" ry="18"/>
<text text-anchor="middle" x="398.34" y="-275.3" font-family="Times,serif" font-size="14.00">Admin</text>
</g>
<!-- MachineManager -->
<g id="node2" class="node">
<title>MachineManager</title>
<ellipse fill="none" stroke="black" cx="501.34" cy="-192" rx="91.78" ry="18"/>
<text text-anchor="middle" x="501.34" y="-188.3" font-family="Times,serif" font-size="14.00">MachineManager</text>
</g>
<!-- Admin&#45;&#45;MachineManager -->
<g id="edge1" class="edge">
<title>Admin&#45;&#45;MachineManager</title>
<path fill="none" stroke="black" d="M428.21,-266.82C441.17,-261.02 455.95,-253.03 467.34,-243 477.75,-233.85 486.46,-220.84 492.46,-210.39"/>
<text text-anchor="middle" x="527.34" y="-231.8" font-family="Times,serif" font-size="14.00">set LB config</text>
</g>
<!-- ContainerRegistry -->
<g id="node3" class="node">
<title>ContainerRegistry</title>
<ellipse fill="none" stroke="black" cx="295.34" cy="-192" rx="96.38" ry="18"/>
<text text-anchor="middle" x="295.34" y="-188.3" font-family="Times,serif" font-size="14.00">ContainerRegistry</text>
</g>
<!-- Admin&#45;&#45;ContainerRegistry -->
<g id="edge2" class="edge">
<title>Admin&#45;&#45;ContainerRegistry</title>
<path fill="none" stroke="black" d="M359.54,-274.06C338.71,-269.83 314.48,-261.07 300.34,-243 293.25,-233.93 292.14,-220.92 292.73,-210.44"/>
<text text-anchor="middle" x="381.84" y="-231.8" font-family="Times,serif" font-size="14.00">push container images</text>
</g>
<!-- Kubernetes -->
<g id="node4" class="node">
<title>Kubernetes</title>
<ellipse fill="none" stroke="black" cx="420.34" cy="-105" rx="64.19" ry="18"/>
<text text-anchor="middle" x="420.34" y="-101.3" font-family="Times,serif" font-size="14.00">Kubernetes</text>
</g>
<!-- MachineManager&#45;&#45;Kubernetes -->
<g id="edge11" class="edge">
<title>MachineManager&#45;&#45;Kubernetes</title>
<path fill="none" stroke="black" d="M447.39,-177.43C437.14,-172.37 427.66,-165.45 421.34,-156 414.97,-146.47 414.91,-133.48 416.34,-123.12"/>
<text text-anchor="middle" x="492.34" y="-144.8" font-family="Times,serif" font-size="14.00">create deployments</text>
</g>
<!-- LoadBalancer -->
<g id="node7" class="node">
<title>LoadBalancer</title>
<ellipse fill="none" stroke="black" cx="264.34" cy="-105" rx="74.19" ry="18"/>
<text text-anchor="middle" x="264.34" y="-101.3" font-family="Times,serif" font-size="14.00">LoadBalancer</text>
</g>
<!-- MachineManager&#45;&#45;LoadBalancer -->
<g id="edge12" class="edge">
<title>MachineManager&#45;&#45;LoadBalancer</title>
<path fill="none" stroke="black" d="M435.62,-179.39C385.01,-170.31 322.77,-158.77 317.34,-156 301.79,-148.06 287.61,-134.15 277.83,-123.02"/>
<text text-anchor="middle" x="364.34" y="-144.8" font-family="Times,serif" font-size="14.00">set LB config</text>
</g>
<!-- etcd -->
<g id="node9" class="node">
<title>etcd</title>
<ellipse fill="none" stroke="black" cx="577.34" cy="-18" rx="30.59" ry="18"/>
<text text-anchor="middle" x="577.34" y="-14.3" font-family="Times,serif" font-size="14.00">etcd</text>
</g>
<!-- MachineManager&#45;&#45;etcd -->
<g id="edge10" class="edge">
<title>MachineManager&#45;&#45;etcd</title>
<path fill="none" stroke="black" d="M590.51,-187.6C637.47,-180.71 691.38,-163.62 721.34,-123 756.85,-74.85 655.85,-39.95 604.84,-25.87"/>
<text text-anchor="middle" x="779.34" y="-101.3" font-family="Times,serif" font-size="14.00">latest weights</text>
</g>
<!-- ContainerRegistry&#45;&#45;Kubernetes -->
<g id="edge3" class="edge">
<title>ContainerRegistry&#45;&#45;Kubernetes</title>
<path fill="none" stroke="black" stroke-dasharray="5,2" d="M285.04,-173.7C280.3,-163.28 277.15,-150.27 284.34,-141 285.78,-139.15 334.7,-126.86 373.46,-117.36"/>
</g>
<!-- Linter -->
<g id="node8" class="node">
<title>Linter</title>
<ellipse fill="none" stroke="black" cx="304.34" cy="-18" rx="38.99" ry="18"/>
<text text-anchor="middle" x="304.34" y="-14.3" font-family="Times,serif" font-size="14.00">Linter</text>
</g>
<!-- Kubernetes&#45;&#45;Linter -->
<g id="edge7" class="edge">
<title>Kubernetes&#45;&#45;Linter</title>
<path fill="none" stroke="black" stroke-dasharray="5,2" d="M384.86,-89.75C373,-84.16 360.08,-77.13 349.34,-69 336.68,-59.41 324.77,-45.9 316.39,-35.34"/>
<text text-anchor="middle" x="377.84" y="-57.8" font-family="Times,serif" font-size="14.00">manage</text>
</g>
<!-- Kubernetes&#45;&#45;etcd -->
<g id="edge8" class="edge">
<title>Kubernetes&#45;&#45;etcd</title>
<path fill="none" stroke="black" d="M420.88,-86.96C422.13,-76.1 425.53,-62.52 434.34,-54 450.32,-38.54 510.64,-27.93 547.64,-22.71"/>
<text text-anchor="middle" x="498.84" y="-57.8" font-family="Times,serif" font-size="14.00">store machine list</text>
</g>
<!-- Client -->
<g id="node5" class="node">
<title>Client</title>
<ellipse fill="none" stroke="black" cx="90.34" cy="-279" rx="38.19" ry="18"/>
<text text-anchor="middle" x="90.34" y="-275.3" font-family="Times,serif" font-size="14.00">Client</text>
</g>
<!-- ExtLoadBalancer -->
<g id="node6" class="node">
<title>ExtLoadBalancer</title>
<ellipse fill="none" stroke="black" cx="90.34" cy="-192" rx="90.18" ry="18"/>
<text text-anchor="middle" x="90.34" y="-188.3" font-family="Times,serif" font-size="14.00">ExtLoadBalancer</text>
</g>
<!-- Client&#45;&#45;ExtLoadBalancer -->
<g id="edge4" class="edge">
<title>Client&#45;&#45;ExtLoadBalancer</title>
<path fill="none" stroke="black" d="M90.34,-260.8C90.34,-246.05 90.34,-224.92 90.34,-210.18"/>
<text text-anchor="middle" x="135.34" y="-231.8" font-family="Times,serif" font-size="14.00">http request</text>
</g>
<!-- ExtLoadBalancer&#45;&#45;LoadBalancer -->
<g id="edge5" class="edge">
<title>ExtLoadBalancer&#45;&#45;LoadBalancer</title>
<path fill="none" stroke="black" d="M120.38,-174.78C139.19,-164.77 164.02,-151.81 186.34,-141 200.37,-134.21 216.01,-127.1 229.58,-121.08"/>
<text text-anchor="middle" x="231.34" y="-144.8" font-family="Times,serif" font-size="14.00">http request</text>
</g>
<!-- LoadBalancer&#45;&#45;Linter -->
<g id="edge6" class="edge">
<title>LoadBalancer&#45;&#45;Linter</title>
<path fill="none" stroke="black" d="M272.44,-86.8C279.42,-71.95 289.45,-50.64 296.4,-35.89"/>
<text text-anchor="middle" x="298.84" y="-57.8" font-family="Times,serif" font-size="14.00">lint</text>
</g>
<!-- etcd&#45;&#45;MachineManager -->
<g id="edge9" class="edge">
<title>etcd&#45;&#45;MachineManager</title>
<path fill="none" stroke="black" d="M580.3,-36.23C584.09,-63.92 587.56,-118.99 563.34,-156 558,-164.17 550.05,-170.63 541.61,-175.66"/>
<text text-anchor="middle" x="649.84" y="-101.3" font-family="Times,serif" font-size="14.00">watch machine list</text>
</g>
</g>
</svg>
