<?xml version="1.0" encoding="UTF-8" standalone="no"?>
<!DOCTYPE svg PUBLIC "-//W3C//DTD SVG 1.1//EN"
 "http://www.w3.org/Graphics/SVG/1.1/DTD/svg11.dtd">
<!-- Generated by graphviz version 2.50.0 (0)
 -->
<!-- Pages: 1 -->
<svg width="579pt" height="307pt"
 viewBox="0.00 0.00 579.00 307.00" xmlns="http://www.w3.org/2000/svg" xmlns:xlink="http://www.w3.org/1999/xlink">
<g id="graph0" class="graph" transform="scale(1 1) rotate(0) translate(4 303)">
<polygon fill="white" stroke="transparent" points="-4,4 -4,-303 575,-303 575,4 -4,4"/>
<!-- Client -->
<g id="node1" class="node">
<title>Client</title>
<ellipse fill="none" stroke="black" cx="375.56" cy="-281.1" rx="38.19" ry="18"/>
<text text-anchor="middle" x="375.56" y="-277.4" font-family="Times,serif" font-size="14.00">Client</text>
</g>
<!-- ExtLoadBalancer -->
<g id="node2" class="node">
<title>ExtLoadBalancer</title>
<ellipse fill="none" stroke="black" cx="373.86" cy="-237" rx="90.18" ry="18"/>
<text text-anchor="middle" x="373.86" y="-233.3" font-family="Times,serif" font-size="14.00">ExtLoadBalancer</text>
</g>
<!-- Client&#45;&#45;ExtLoadBalancer -->
<g id="edge1" class="edge">
<title>Client&#45;&#45;ExtLoadBalancer</title>
<path fill="none" stroke="black" d="M374.86,-262.91C374.76,-260.35 374.66,-257.71 374.56,-255.15"/>
</g>
<!-- LoadBalancer -->
<g id="node3" class="node">
<title>LoadBalancer</title>
<ellipse fill="none" stroke="black" cx="197.41" cy="-206.23" rx="74.19" ry="18"/>
<text text-anchor="middle" x="197.41" y="-202.53" font-family="Times,serif" font-size="14.00">LoadBalancer</text>
</g>
<!-- ExtLoadBalancer&#45;&#45;LoadBalancer -->
<g id="edge2" class="edge">
<title>ExtLoadBalancer&#45;&#45;LoadBalancer</title>
<path fill="none" stroke="black" d="M305.64,-225.1C289.83,-222.35 273.12,-219.43 257.68,-216.74"/>
</g>
<!-- etcd -->
<g id="node4" class="node">
<title>etcd</title>
<ellipse fill="none" stroke="black" cx="30.8" cy="-174.68" rx="30.59" ry="18"/>
<text text-anchor="middle" x="30.8" y="-170.98" font-family="Times,serif" font-size="14.00">etcd</text>
</g>
<!-- LoadBalancer&#45;&#45;etcd -->
<g id="edge3" class="edge">
<title>LoadBalancer&#45;&#45;etcd</title>
<path fill="none" stroke="black" d="M138.67,-195.11C112.06,-190.07 81.78,-184.34 60.09,-180.23"/>
</g>
<!-- KubeNode -->
<g id="node5" class="node">
<title>KubeNode</title>
<ellipse fill="none" stroke="black" cx="377.91" cy="-93.42" rx="59.29" ry="18"/>
<text text-anchor="middle" x="377.91" y="-89.72" font-family="Times,serif" font-size="14.00">KubeNode</text>
</g>
<!-- LoadBalancer&#45;&#45;KubeNode -->
<g id="edge4" class="edge">
<title>LoadBalancer&#45;&#45;KubeNode</title>
<path fill="none" stroke="black" d="M224.43,-189.34C258.85,-167.83 317.93,-130.9 351.87,-109.69"/>
</g>
<!-- Linter -->
<g id="node8" class="node">
<title>Linter</title>
<ellipse fill="none" stroke="black" cx="532.03" cy="-17.57" rx="38.99" ry="18"/>
<text text-anchor="middle" x="532.03" y="-13.87" font-family="Times,serif" font-size="14.00">Linter</text>
</g>
<!-- KubeNode&#45;&#45;Linter -->
<g id="edge8" class="edge">
<title>KubeNode&#45;&#45;Linter</title>
<path fill="none" stroke="black" stroke-dasharray="5,2" d="M409.1,-78.07C437.24,-64.22 478.23,-44.05 505.01,-30.87"/>
</g>
<!-- MachineManager -->
<g id="node6" class="node">
<title>MachineManager</title>
<ellipse fill="none" stroke="black" cx="157.29" cy="-103.3" rx="91.78" ry="18"/>
<text text-anchor="middle" x="157.29" y="-99.6" font-family="Times,serif" font-size="14.00">MachineManager</text>
</g>
<!-- MachineManager&#45;&#45;etcd -->
<g id="edge5" class="edge">
<title>MachineManager&#45;&#45;etcd</title>
<path fill="none" stroke="black" d="M126.99,-120.4C104.19,-133.27 73.46,-150.61 52.93,-162.2"/>
</g>
<!-- MachineManager&#45;&#45;KubeNode -->
<g id="edge6" class="edge">
<title>MachineManager&#45;&#45;KubeNode</title>
<path fill="none" stroke="black" d="M246.7,-99.3C271.19,-98.2 297.1,-97.04 319.37,-96.04"/>
</g>
<!-- MachineSpawner -->
<g id="node9" class="node">
<title>MachineSpawner</title>
<ellipse fill="none" stroke="black" cx="124.13" cy="-56.48" rx="90.98" ry="18"/>
<text text-anchor="middle" x="124.13" y="-52.78" font-family="Times,serif" font-size="14.00">MachineSpawner</text>
</g>
<!-- MachineManager&#45;&#45;MachineSpawner -->
<g id="edge9" class="edge">
<title>MachineManager&#45;&#45;MachineSpawner</title>
<path fill="none" stroke="black" d="M144.56,-85.33C142.01,-81.72 139.32,-77.93 136.77,-74.32"/>
</g>
<!-- Kubernetes -->
<g id="node7" class="node">
<title>Kubernetes</title>
<ellipse fill="none" stroke="black" cx="347.8" cy="-48.52" rx="64.19" ry="18"/>
<text text-anchor="middle" x="347.8" y="-44.82" font-family="Times,serif" font-size="14.00">Kubernetes</text>
</g>
<!-- Kubernetes&#45;&#45;KubeNode -->
<g id="edge7" class="edge">
<title>Kubernetes&#45;&#45;KubeNode</title>
<path fill="none" stroke="black" d="M359.7,-66.26C361.74,-69.3 363.86,-72.46 365.9,-75.51"/>
</g>
<!-- MachineSpawner&#45;&#45;Kubernetes -->
<g id="edge10" class="edge">
<title>MachineSpawner&#45;&#45;Kubernetes</title>
<path fill="none" stroke="black" d="M213.82,-53.28C237.27,-52.45 262.09,-51.57 283.9,-50.79"/>
</g>
</g>
</svg>
