<?xml version="1.0" encoding="UTF-8" standalone="no"?>
<!DOCTYPE svg PUBLIC "-//W3C//DTD SVG 1.1//EN"
 "http://www.w3.org/Graphics/SVG/1.1/DTD/svg11.dtd">
<!-- Generated by graphviz version 2.50.0 (0)
 -->
<!-- Pages: 1 -->
<svg width="596pt" height="566pt"
 viewBox="0.00 0.00 596.20 566.00" xmlns="http://www.w3.org/2000/svg" xmlns:xlink="http://www.w3.org/1999/xlink">
<g id="graph0" class="graph" transform="scale(1 1) rotate(0) translate(4 562)">
<polygon fill="white" stroke="transparent" points="-4,4 -4,-562 592.2,-562 592.2,4 -4,4"/>
<!-- Client -->
<g id="node1" class="node">
<title>Client</title>
<ellipse fill="none" stroke="black" cx="442.2" cy="-279" rx="38.19" ry="18"/>
<text text-anchor="middle" x="442.2" y="-275.3" font-family="Times,serif" font-size="14.00">Client</text>
</g>
<!-- ExtLoadBalancer -->
<g id="node2" class="node">
<title>ExtLoadBalancer</title>
<ellipse fill="none" stroke="black" cx="413.2" cy="-192" rx="90.18" ry="18"/>
<text text-anchor="middle" x="413.2" y="-188.3" font-family="Times,serif" font-size="14.00">ExtLoadBalancer</text>
</g>
<!-- Client&#45;&gt;ExtLoadBalancer -->
<g id="edge1" class="edge">
<title>Client&#45;&gt;ExtLoadBalancer</title>
<path fill="none" stroke="black" d="M429.29,-261.76C425.43,-256.12 421.6,-249.56 419.2,-243 416.59,-235.86 415.06,-227.79 414.18,-220.26"/>
<polygon fill="black" stroke="black" points="417.65,-219.79 413.32,-210.12 410.68,-220.38 417.65,-219.79"/>
<text text-anchor="middle" x="464.2" y="-231.8" font-family="Times,serif" font-size="14.00">http request</text>
</g>
<!-- LoadBalancer -->
<g id="node3" class="node">
<title>LoadBalancer</title>
<ellipse fill="none" stroke="black" cx="413.2" cy="-105" rx="74.19" ry="18"/>
<text text-anchor="middle" x="413.2" y="-101.3" font-family="Times,serif" font-size="14.00">LoadBalancer</text>
</g>
<!-- ExtLoadBalancer&#45;&gt;LoadBalancer -->
<g id="edge2" class="edge">
<title>ExtLoadBalancer&#45;&gt;LoadBalancer</title>
<path fill="none" stroke="black" d="M413.2,-173.8C413.2,-162.16 413.2,-146.55 413.2,-133.24"/>
<polygon fill="black" stroke="black" points="416.7,-133.18 413.2,-123.18 409.7,-133.18 416.7,-133.18"/>
<text text-anchor="middle" x="458.2" y="-144.8" font-family="Times,serif" font-size="14.00">http request</text>
</g>
<!-- Linter -->
<g id="node4" class="node">
<title>Linter</title>
<ellipse fill="none" stroke="black" cx="472.2" cy="-18" rx="38.99" ry="18"/>
<text text-anchor="middle" x="472.2" y="-14.3" font-family="Times,serif" font-size="14.00">Linter</text>
</g>
<!-- LoadBalancer&#45;&gt;Linter -->
<g id="edge3" class="edge">
<title>LoadBalancer&#45;&gt;Linter</title>
<path fill="none" stroke="black" d="M424.86,-87.21C433.48,-74.79 445.36,-57.67 455.06,-43.7"/>
<polygon fill="black" stroke="black" points="457.94,-45.68 460.77,-35.47 452.19,-41.69 457.94,-45.68"/>
<text text-anchor="middle" x="458.7" y="-57.8" font-family="Times,serif" font-size="14.00">lint</text>
</g>
<!-- MachineManager -->
<g id="node5" class="node">
<title>MachineManager</title>
<ellipse fill="none" stroke="black" cx="171.2" cy="-192" rx="91.78" ry="18"/>
<text text-anchor="middle" x="171.2" y="-188.3" font-family="Times,serif" font-size="14.00">MachineManager</text>
</g>
<!-- MachineManager&#45;&gt;LoadBalancer -->
<g id="edge6" class="edge">
<title>MachineManager&#45;&gt;LoadBalancer</title>
<path fill="none" stroke="black" d="M213.91,-176C255.66,-161.33 319.22,-139.01 363.28,-123.53"/>
<polygon fill="black" stroke="black" points="364.66,-126.76 372.93,-120.14 362.34,-120.16 364.66,-126.76"/>
<text text-anchor="middle" x="353.2" y="-144.8" font-family="Times,serif" font-size="14.00">set LB config</text>
</g>
<!-- etcd -->
<g id="node6" class="node">
<title>etcd</title>
<ellipse fill="none" stroke="black" cx="257.2" cy="-366" rx="30.59" ry="18"/>
<text text-anchor="middle" x="257.2" y="-362.3" font-family="Times,serif" font-size="14.00">etcd</text>
</g>
<!-- MachineManager&#45;&gt;etcd -->
<g id="edge4" class="edge">
<title>MachineManager&#45;&gt;etcd</title>
<path fill="none" stroke="black" d="M251.47,-207.55C261.14,-212.53 269.84,-219.17 276.2,-228 302.71,-264.78 287.36,-286.06 276.2,-330 275.37,-333.28 274.16,-336.59 272.74,-339.8"/>
<polygon fill="black" stroke="black" points="252.9,-204.36 242.35,-203.43 250.02,-210.73 252.9,-204.36"/>
<polygon fill="black" stroke="black" points="269.49,-338.47 268.07,-348.97 275.73,-341.64 269.49,-338.47"/>
<text text-anchor="middle" x="338.2" y="-275.3" font-family="Times,serif" font-size="14.00">lastest config</text>
</g>
<!-- MachineSpawner -->
<g id="node7" class="node">
<title>MachineSpawner</title>
<ellipse fill="none" stroke="black" cx="106.2" cy="-279" rx="90.98" ry="18"/>
<text text-anchor="middle" x="106.2" y="-275.3" font-family="Times,serif" font-size="14.00">MachineSpawner</text>
</g>
<!-- etcd&#45;&gt;MachineSpawner -->
<g id="edge5" class="edge">
<title>etcd&#45;&gt;MachineSpawner</title>
<path fill="none" stroke="black" d="M227.15,-361.48C202.19,-357.34 166.76,-348.5 141.2,-330 132.54,-323.73 125.26,-314.63 119.63,-305.91"/>
<polygon fill="black" stroke="black" points="122.5,-303.88 114.37,-297.09 116.49,-307.47 122.5,-303.88"/>
<text text-anchor="middle" x="208.7" y="-318.8" font-family="Times,serif" font-size="14.00">watch machine list</text>
</g>
<!-- MachineSpawner&#45;&gt;MachineManager -->
<g id="edge8" class="edge">
<title>MachineSpawner&#45;&gt;MachineManager</title>
<path fill="none" stroke="black" d="M102.44,-260.6C101.18,-250.39 101.35,-237.65 107.2,-228 110.56,-222.46 115.14,-217.73 120.31,-213.72"/>
<polygon fill="black" stroke="black" points="122.49,-216.47 128.83,-207.98 118.58,-210.66 122.49,-216.47"/>
<text text-anchor="middle" x="191.7" y="-231.8" font-family="Times,serif" font-size="14.00">append/delete linter/LB</text>
</g>
<!-- MachineSpawner&#45;&gt;MachineManager -->
<g id="edge9" class="edge">
<title>MachineSpawner&#45;&gt;MachineManager</title>
<path fill="none" stroke="black" d="M40.13,-266.58C12.58,-258.86 -9.9,-246.61 5.2,-228 15.29,-215.56 46.76,-207.38 79.63,-202.07"/>
<polygon fill="black" stroke="black" points="80.5,-205.48 89.86,-200.52 79.44,-198.56 80.5,-205.48"/>
<text text-anchor="middle" x="52.2" y="-231.8" font-family="Times,serif" font-size="14.00">set LB config</text>
</g>
<!-- Kubernetes -->
<g id="node8" class="node">
<title>Kubernetes</title>
<ellipse fill="none" stroke="black" cx="257.2" cy="-453" rx="64.19" ry="18"/>
<text text-anchor="middle" x="257.2" y="-449.3" font-family="Times,serif" font-size="14.00">Kubernetes</text>
</g>
<!-- Kubernetes&#45;&gt;Linter -->
<g id="edge7" class="edge">
<title>Kubernetes&#45;&gt;Linter</title>
<path fill="none" stroke="black" stroke-dasharray="5,2" d="M316.32,-445.7C396.87,-435.44 531.2,-411.64 531.2,-367 531.2,-367 531.2,-367 531.2,-104 531.2,-79.45 514.39,-56.9 498.72,-41.2"/>
<polygon fill="black" stroke="black" points="500.86,-38.4 491.19,-34.06 496.04,-43.48 500.86,-38.4"/>
<text text-anchor="middle" x="559.7" y="-231.8" font-family="Times,serif" font-size="14.00">manage</text>
</g>
<!-- Kubernetes&#45;&gt;etcd -->
<g id="edge12" class="edge">
<title>Kubernetes&#45;&gt;etcd</title>
<path fill="none" stroke="black" d="M257.2,-434.8C257.2,-423.16 257.2,-407.55 257.2,-394.24"/>
<polygon fill="black" stroke="black" points="260.7,-394.18 257.2,-384.18 253.7,-394.18 260.7,-394.18"/>
<text text-anchor="middle" x="321.7" y="-405.8" font-family="Times,serif" font-size="14.00">store machine list</text>
</g>
<!-- Admin -->
<g id="node9" class="node">
<title>Admin</title>
<ellipse fill="none" stroke="black" cx="123.2" cy="-540" rx="40.09" ry="18"/>
<text text-anchor="middle" x="123.2" y="-536.3" font-family="Times,serif" font-size="14.00">Admin</text>
</g>
<!-- Admin&#45;&gt;MachineSpawner -->
<g id="edge10" class="edge">
<title>Admin&#45;&gt;MachineSpawner</title>
<path fill="none" stroke="black" d="M122.09,-522.01C119.2,-478.1 111.49,-360.6 107.98,-307.15"/>
<polygon fill="black" stroke="black" points="111.47,-306.81 107.32,-297.06 104.48,-307.26 111.47,-306.81"/>
<text text-anchor="middle" x="162.2" y="-405.8" font-family="Times,serif" font-size="14.00">set LB config</text>
</g>
<!-- Admin&#45;&gt;Kubernetes -->
<g id="edge11" class="edge">
<title>Admin&#45;&gt;Kubernetes</title>
<path fill="none" stroke="black" d="M145.63,-524.77C167,-511.22 199.43,-490.65 223.83,-475.17"/>
<polygon fill="black" stroke="black" points="225.85,-478.03 232.42,-469.72 222.1,-472.12 225.85,-478.03"/>
<text text-anchor="middle" x="274.7" y="-492.8" font-family="Times,serif" font-size="14.00">manage deployments</text>
</g>
</g>
</svg>
