<?xml version="1.0" encoding="UTF-8" standalone="no"?>
<!DOCTYPE svg PUBLIC "-//W3C//DTD SVG 1.1//EN"
 "http://www.w3.org/Graphics/SVG/1.1/DTD/svg11.dtd">
<!-- Generated by graphviz version 2.50.0 (0)
 -->
<!-- Pages: 1 -->
<svg width="593pt" height="566pt"
 viewBox="0.00 0.00 593.16 566.00" xmlns="http://www.w3.org/2000/svg" xmlns:xlink="http://www.w3.org/1999/xlink">
<g id="graph0" class="graph" transform="scale(1 1) rotate(0) translate(4 562)">
<polygon fill="white" stroke="transparent" points="-4,4 -4,-562 589.16,-562 589.16,4 -4,4"/>
<!-- Client -->
<g id="node1" class="node">
<title>Client</title>
<ellipse fill="none" stroke="black" cx="439.16" cy="-279" rx="38.19" ry="18"/>
<text text-anchor="middle" x="439.16" y="-275.3" font-family="Times,serif" font-size="14.00">Client</text>
</g>
<!-- ExtLoadBalancer -->
<g id="node2" class="node">
<title>ExtLoadBalancer</title>
<ellipse fill="none" stroke="black" cx="410.16" cy="-192" rx="90.18" ry="18"/>
<text text-anchor="middle" x="410.16" y="-188.3" font-family="Times,serif" font-size="14.00">ExtLoadBalancer</text>
</g>
<!-- Client&#45;&gt;ExtLoadBalancer -->
<g id="edge1" class="edge">
<title>Client&#45;&gt;ExtLoadBalancer</title>
<path fill="none" stroke="black" d="M426.24,-261.76C422.39,-256.12 418.55,-249.56 416.16,-243 413.55,-235.86 412.02,-227.79 411.14,-220.26"/>
<polygon fill="black" stroke="black" points="414.61,-219.79 410.28,-210.12 407.63,-220.38 414.61,-219.79"/>
<text text-anchor="middle" x="461.16" y="-231.8" font-family="Times,serif" font-size="14.00">http request</text>
</g>
<!-- LoadBalancer -->
<g id="node3" class="node">
<title>LoadBalancer</title>
<ellipse fill="none" stroke="black" cx="410.16" cy="-105" rx="74.19" ry="18"/>
<text text-anchor="middle" x="410.16" y="-101.3" font-family="Times,serif" font-size="14.00">LoadBalancer</text>
</g>
<!-- ExtLoadBalancer&#45;&gt;LoadBalancer -->
<g id="edge2" class="edge">
<title>ExtLoadBalancer&#45;&gt;LoadBalancer</title>
<path fill="none" stroke="black" d="M410.16,-173.8C410.16,-162.16 410.16,-146.55 410.16,-133.24"/>
<polygon fill="black" stroke="black" points="413.66,-133.18 410.16,-123.18 406.66,-133.18 413.66,-133.18"/>
<text text-anchor="middle" x="455.16" y="-144.8" font-family="Times,serif" font-size="14.00">http request</text>
</g>
<!-- Linter -->
<g id="node4" class="node">
<title>Linter</title>
<ellipse fill="none" stroke="black" cx="469.16" cy="-18" rx="38.99" ry="18"/>
<text text-anchor="middle" x="469.16" y="-14.3" font-family="Times,serif" font-size="14.00">Linter</text>
</g>
<!-- LoadBalancer&#45;&gt;Linter -->
<g id="edge3" class="edge">
<title>LoadBalancer&#45;&gt;Linter</title>
<path fill="none" stroke="black" d="M421.81,-87.21C430.44,-74.79 442.31,-57.67 452.02,-43.7"/>
<polygon fill="black" stroke="black" points="454.9,-45.68 457.73,-35.47 449.15,-41.69 454.9,-45.68"/>
<text text-anchor="middle" x="455.66" y="-57.8" font-family="Times,serif" font-size="14.00">lint</text>
</g>
<!-- MachineManager -->
<g id="node5" class="node">
<title>MachineManager</title>
<ellipse fill="none" stroke="black" cx="170.16" cy="-192" rx="91.78" ry="18"/>
<text text-anchor="middle" x="170.16" y="-188.3" font-family="Times,serif" font-size="14.00">MachineManager</text>
</g>
<!-- MachineManager&#45;&gt;LoadBalancer -->
<g id="edge6" class="edge">
<title>MachineManager&#45;&gt;LoadBalancer</title>
<path fill="none" stroke="black" d="M212.51,-176C253.8,-161.38 316.57,-139.15 360.26,-123.67"/>
<polygon fill="black" stroke="black" points="361.57,-126.92 369.82,-120.28 359.23,-120.32 361.57,-126.92"/>
<text text-anchor="middle" x="351.16" y="-144.8" font-family="Times,serif" font-size="14.00">set LB config</text>
</g>
<!-- etcd -->
<g id="node6" class="node">
<title>etcd</title>
<ellipse fill="none" stroke="black" cx="254.16" cy="-366" rx="30.59" ry="18"/>
<text text-anchor="middle" x="254.16" y="-362.3" font-family="Times,serif" font-size="14.00">etcd</text>
</g>
<!-- MachineManager&#45;&gt;etcd -->
<g id="edge4" class="edge">
<title>MachineManager&#45;&gt;etcd</title>
<path fill="none" stroke="black" d="M249.21,-207.94C258.58,-212.87 266.99,-219.39 273.16,-228 299.56,-264.85 284.31,-286.06 273.16,-330 272.32,-333.28 271.11,-336.59 269.7,-339.8"/>
<polygon fill="black" stroke="black" points="250.52,-204.69 239.97,-203.69 247.59,-211.05 250.52,-204.69"/>
<polygon fill="black" stroke="black" points="266.45,-338.47 265.03,-348.97 272.69,-341.64 266.45,-338.47"/>
<text text-anchor="middle" x="335.16" y="-275.3" font-family="Times,serif" font-size="14.00">lastest config</text>
</g>
<!-- MachineSpawner -->
<g id="node7" class="node">
<title>MachineSpawner</title>
<ellipse fill="none" stroke="black" cx="105.16" cy="-279" rx="90.98" ry="18"/>
<text text-anchor="middle" x="105.16" y="-275.3" font-family="Times,serif" font-size="14.00">MachineSpawner</text>
</g>
<!-- etcd&#45;&gt;MachineSpawner -->
<g id="edge5" class="edge">
<title>etcd&#45;&gt;MachineSpawner</title>
<path fill="none" stroke="black" d="M223.98,-361.66C198.94,-357.63 163.46,-348.85 138.16,-330 129.74,-323.73 122.83,-314.63 117.55,-305.91"/>
<polygon fill="black" stroke="black" points="120.56,-304.12 112.64,-297.09 114.44,-307.53 120.56,-304.12"/>
<text text-anchor="middle" x="205.66" y="-318.8" font-family="Times,serif" font-size="14.00">watch machine list</text>
</g>
<!-- MachineSpawner&#45;&gt;MachineManager -->
<g id="edge8" class="edge">
<title>MachineSpawner&#45;&gt;MachineManager</title>
<path fill="none" stroke="black" d="M101.83,-260.58C100.81,-250.36 101.24,-237.62 107.16,-228 110.52,-222.55 115.05,-217.87 120.15,-213.89"/>
<polygon fill="black" stroke="black" points="122.25,-216.69 128.56,-208.18 118.32,-210.9 122.25,-216.69"/>
<text text-anchor="middle" x="190.16" y="-231.8" font-family="Times,serif" font-size="14.00">append/delete machine</text>
</g>
<!-- MachineSpawner&#45;&gt;MachineManager -->
<g id="edge9" class="edge">
<title>MachineSpawner&#45;&gt;MachineManager</title>
<path fill="none" stroke="black" d="M39.73,-266.46C12.44,-258.72 -9.81,-246.48 5.16,-228 15.18,-215.63 46.46,-207.45 79.14,-202.14"/>
<polygon fill="black" stroke="black" points="79.94,-205.56 89.3,-200.58 78.88,-198.64 79.94,-205.56"/>
<text text-anchor="middle" x="52.16" y="-231.8" font-family="Times,serif" font-size="14.00">set LB config</text>
</g>
<!-- Kubernetes -->
<g id="node8" class="node">
<title>Kubernetes</title>
<ellipse fill="none" stroke="black" cx="254.16" cy="-453" rx="64.19" ry="18"/>
<text text-anchor="middle" x="254.16" y="-449.3" font-family="Times,serif" font-size="14.00">Kubernetes</text>
</g>
<!-- Kubernetes&#45;&gt;Linter -->
<g id="edge7" class="edge">
<title>Kubernetes&#45;&gt;Linter</title>
<path fill="none" stroke="black" stroke-dasharray="5,2" d="M313.27,-445.7C393.82,-435.44 528.16,-411.64 528.16,-367 528.16,-367 528.16,-367 528.16,-104 528.16,-79.45 511.35,-56.9 495.67,-41.2"/>
<polygon fill="black" stroke="black" points="497.81,-38.4 488.15,-34.06 493,-43.48 497.81,-38.4"/>
<text text-anchor="middle" x="556.66" y="-231.8" font-family="Times,serif" font-size="14.00">manage</text>
</g>
<!-- Kubernetes&#45;&gt;etcd -->
<g id="edge12" class="edge">
<title>Kubernetes&#45;&gt;etcd</title>
<path fill="none" stroke="black" d="M254.16,-434.8C254.16,-423.16 254.16,-407.55 254.16,-394.24"/>
<polygon fill="black" stroke="black" points="257.66,-394.18 254.16,-384.18 250.66,-394.18 257.66,-394.18"/>
<text text-anchor="middle" x="318.66" y="-405.8" font-family="Times,serif" font-size="14.00">store machine list</text>
</g>
<!-- Admin -->
<g id="node9" class="node">
<title>Admin</title>
<ellipse fill="none" stroke="black" cx="120.16" cy="-540" rx="40.09" ry="18"/>
<text text-anchor="middle" x="120.16" y="-536.3" font-family="Times,serif" font-size="14.00">Admin</text>
</g>
<!-- Admin&#45;&gt;MachineSpawner -->
<g id="edge10" class="edge">
<title>Admin&#45;&gt;MachineSpawner</title>
<path fill="none" stroke="black" d="M119.15,-521.6C116.59,-477.46 109.84,-360.83 106.75,-307.42"/>
<polygon fill="black" stroke="black" points="110.23,-307.1 106.16,-297.32 103.24,-307.51 110.23,-307.1"/>
<text text-anchor="middle" x="160.16" y="-405.8" font-family="Times,serif" font-size="14.00">set LB config</text>
</g>
<!-- Admin&#45;&gt;Kubernetes -->
<g id="edge11" class="edge">
<title>Admin&#45;&gt;Kubernetes</title>
<path fill="none" stroke="black" d="M142.59,-524.77C163.95,-511.22 196.39,-490.65 220.79,-475.17"/>
<polygon fill="black" stroke="black" points="222.81,-478.03 229.38,-469.72 219.06,-472.12 222.81,-478.03"/>
<text text-anchor="middle" x="271.66" y="-492.8" font-family="Times,serif" font-size="14.00">manage deployments</text>
</g>
</g>
</svg>
